<svg width="1440" height="308" viewBox="0 0 1440 308" fill="none" xmlns="http://www.w3.org/2000/svg">
<path d="M277.154 246H239.868L232.958 86.2954L202.582 246H167.121L207.014 54.876H263.074L268.941 188.767L334.126 54.876H390.838L350.814 246H314.962L352.639 87.4688L277.154 246ZM1228.6 196.72L1219.09 99.7236V54.876H1258.72V99.7236L1249.33 196.72H1228.6ZM1220.65 246V209.366H1257.28V246H1220.65Z" fill="#00BFFF"/>
<path d="M390.316 151.611C390.316 132.143 393.228 115.803 399.051 102.592C403.397 92.8574 409.307 84.1226 416.781 76.3872C424.343 68.6519 432.6 62.9155 441.552 59.1782C453.459 54.1372 467.192 51.6167 482.749 51.6167C510.909 51.6167 533.42 60.3516 550.281 77.8213C567.23 95.291 575.704 119.583 575.704 150.699C575.704 181.553 567.317 205.715 550.542 223.185C533.768 240.568 511.344 249.259 483.271 249.259C454.85 249.259 432.252 240.611 415.478 223.315C398.703 205.933 390.316 182.031 390.316 151.611ZM430.079 150.308C430.079 171.949 435.077 188.376 445.072 199.588C455.067 210.713 467.757 216.275 483.14 216.275C498.524 216.275 511.127 210.756 520.948 199.718C530.856 188.593 535.81 171.949 535.81 149.786C535.81 127.884 530.987 111.544 521.339 100.767C511.779 89.9893 499.046 84.6006 483.14 84.6006C467.235 84.6006 454.415 90.0762 444.681 101.027C434.947 111.892 430.079 128.318 430.079 150.308ZM654.709 246L586.394 54.876H628.243L676.611 196.329L723.414 54.876H764.351L695.906 246H654.709ZM782.864 246V54.876H821.453V246H782.864ZM858.348 246V54.876H1000.06V87.208H896.938V129.579H992.891V161.78H896.938V213.798H1003.71V246H858.348ZM1026.66 183.813L1064.2 180.163C1066.46 192.765 1071.03 202.021 1077.89 207.932C1084.85 213.842 1094.19 216.797 1105.92 216.797C1118.35 216.797 1127.7 214.189 1133.95 208.975C1140.3 203.673 1143.47 197.502 1143.47 190.462C1143.47 185.942 1142.12 182.118 1139.43 178.989C1136.82 175.773 1132.21 172.992 1125.61 170.646C1121.09 169.081 1110.79 166.3 1094.71 162.302C1074.03 157.174 1059.51 150.873 1051.17 143.398C1039.43 132.881 1033.57 120.062 1033.57 104.938C1033.57 95.2041 1036.3 86.1216 1041.78 77.6909C1047.34 69.1733 1055.3 62.6982 1065.64 58.2656C1076.07 53.833 1088.63 51.6167 1103.32 51.6167C1127.3 51.6167 1145.34 56.875 1157.42 67.3916C1169.59 77.9082 1175.98 91.9448 1176.58 109.501L1137.99 111.196C1136.34 101.375 1132.78 94.335 1127.3 90.0762C1121.92 85.7305 1113.79 83.5576 1102.92 83.5576C1091.71 83.5576 1082.93 85.8608 1076.59 90.4673C1072.5 93.4224 1070.46 97.377 1070.46 102.331C1070.46 106.851 1072.37 110.718 1076.2 113.934C1081.07 118.019 1092.89 122.278 1111.66 126.71C1130.43 131.143 1144.3 135.75 1153.25 140.53C1162.29 145.223 1169.33 151.698 1174.37 159.955C1179.5 168.125 1182.06 178.25 1182.06 190.332C1182.06 201.283 1179.02 211.539 1172.93 221.099C1166.85 230.66 1158.25 237.787 1147.12 242.48C1136 247.086 1122.13 249.39 1105.53 249.39C1081.37 249.39 1062.81 243.827 1049.86 232.702C1036.91 221.49 1029.18 205.194 1026.66 183.813Z" fill="black"/>
</svg>
